<svg xmlns="http://www.w3.org/2000/svg" width="30" height="30" viewBox="0 0 30 30" fill="none">
<path d="M27.7295 14.7949L15.6621 2.73633C15.5752 2.64928 15.472 2.58021 15.3584 2.53308C15.2448 2.48596 15.123 2.4617 15 2.4617C14.877 2.4617 14.7552 2.48596 14.6416 2.53308C14.528 2.58021 14.4248 2.64928 14.3379 2.73633L2.27051 14.7949C1.91895 15.1465 1.71973 15.624 1.71973 16.1221C1.71973 17.1563 2.56055 17.9971 3.59473 17.9971H4.86621V26.6016C4.86621 27.1201 5.28516 27.5391 5.80371 27.5391H13.125V20.9766H16.4062V27.5391H24.1963C24.7148 27.5391 25.1338 27.1201 25.1338 26.6016V17.9971H26.4053C26.9033 17.9971 27.3809 17.8008 27.7324 17.4463C28.4619 16.7139 28.4619 15.5273 27.7295 14.7949Z" fill="black"/>
</svg>